<svg xmlns="http://www.w3.org/2000/svg" width="960" height="960" viewBox="0 0 960 960">
  <g transform="translate(140 20) scale(0.77)" fill="none" stroke="#000" stroke-linecap="round" stroke-linejoin="round">
    <g stroke-width="44">
      <path d="M27 186C39 120 96 62 184 37 322-2 635 7 755 34c65 15 96 57 100 122l14 738c2 76-13 139-64 177-57 42-186 48-358 34M332 1099c-142-6-246-25-288-93-20-35-27-86-27-144l10-676"/>
      <path d="M27 190c8 51 51 75 139 91 138 25 481 44 597 18 65-15 93-50 94-101"/>
      <path d="M22 579c23 61 129 84 310 91m138 5c181 10 354 6 391-85"/>
      <path d="M37 992c58 71 164 91 295 95m118 9c173 17 326 2 397-75"/>
      <path d="M188 375c-25 0-43 19-43 45l5 136c1 29 21 44 49 46l424 18c32 1 55-20 57-50l3-122c1-28-19-49-49-51z"/>
      <path d="M339 678c4-39 31-61 68-61 38 0 63 23 65 61l-5 65c-2 27-10 44-20 57m-110-126-6 61c-2 20 0 38 8 53"/>
      <path d="M338 787c2-41 26-66 63-66 37 0 61 26 62 66v303c0 44-24 72-62 72-38 0-63-28-63-72z"/>
    </g>
    <g stroke-width="28">
      <path d="M57 182c5-57 63-109 154-130 143-33 428-22 539 2 50 11 72 43 75 91 3 46-16 76-55 88-94 29-389 19-565-2-102-12-151-25-148-49z"/>
      <path d="M348 711c17-23 34-32 58-32 24 0 45 11 61 33M341 751c17-25 37-39 63-39 27 0 47 14 65 39"/>
      <path d="M354 789c1-29 19-47 46-47 28 0 45 19 46 47v299c0 31-17 51-45 51-28 0-47-20-47-51z"/>
      <path d="M470 680h29v64c-2 24-15 43-35 55"/>
      <path d="M378 44l30-19 31 20h-61z"/>
      <path d="M405 637v18m-10-8h21"/>
    </g>
  </g>
</svg>
